<svg width="63" height="62" viewBox="0 0 63 62" fill="none" xmlns="http://www.w3.org/2000/svg">
<g clip-path="url(#clip0_53_186)">
<path d="M15.0313 54.25L8.89912 44.0781C8.26693 42.9662 8.10021 41.6494 8.43534 40.415C8.77047 39.1806 9.58024 38.1288 10.6879 37.4893C11.7957 36.8497 13.1114 36.6743 14.3479 37.0012C15.5845 37.3282 16.6416 38.1309 17.2885 39.2344L21.8126 46.5V20.3438C21.8126 19.0591 22.3229 17.8271 23.2313 16.9187C24.1396 16.0103 25.3717 15.5 26.6563 15.5C27.941 15.5 29.173 16.0103 30.0814 16.9187C30.9897 17.8271 31.5001 19.0591 31.5001 20.3438V33.9062C31.5001 32.6216 32.0104 31.3896 32.9188 30.4812C33.8271 29.5728 35.0592 29.0625 36.3438 29.0625C37.6285 29.0625 38.8605 29.5728 39.7689 30.4812C40.6772 31.3896 41.1876 32.6216 41.1876 33.9062V37.7812C41.1876 36.4966 41.6979 35.2646 42.6063 34.3562C43.5146 33.4478 44.7467 32.9375 46.0313 32.9375C47.316 32.9375 48.548 33.4478 49.4564 34.3562C50.3647 35.2646 50.8751 36.4966 50.8751 37.7812V46.5C50.8751 49.8519 50.4512 52.5547 49.9063 54.25" stroke="#0F3D5F" stroke-width="5" stroke-linecap="round" stroke-linejoin="round"/>
<path d="M12.125 20.3438C12.125 16.4898 13.656 12.7937 16.3811 10.0686C19.1062 7.34347 22.8023 5.8125 26.6562 5.8125C30.5102 5.8125 34.2063 7.34347 36.9314 10.0686C39.6565 12.7937 41.1875 16.4898 41.1875 20.3438" stroke="#0F3D5F" stroke-width="5" stroke-linecap="round" stroke-linejoin="round"/>
</g>
<defs>
<clipPath id="clip0_53_186">
<rect width="62" height="62" fill="white" transform="translate(0.5)"/>
</clipPath>
</defs>
</svg>
