<?xml version="1.0" encoding="utf-8"?>
<!-- Generator: Adobe Illustrator 26.3.1, SVG Export Plug-In . SVG Version: 6.00 Build 0)  -->
<svg version="1.1" id="圖層_1" xmlns="http://www.w3.org/2000/svg" xmlns:xlink="http://www.w3.org/1999/xlink" x="0px" y="0px"
	 viewBox="0 0 42 42" style="enable-background:new 0 0 42 42;" xml:space="preserve">
<style type="text/css">
	.st0{fill:#0F3D5F;}
</style>
<path class="st0" d="M29.1,25.5h-1.4L27.3,25c1.7-2,2.7-4.6,2.7-7.4c0-6.3-5.1-11.4-11.4-11.4S7.2,11.3,7.2,17.6S12.3,29,18.6,29
	c2.8,0,5.4-1,7.4-2.7l0.5,0.5v1.4l8.8,8.7l2.6-2.6L29.1,25.5z M18.6,25.5c-4.4,0-7.9-3.5-7.9-7.9s3.5-7.9,7.9-7.9s7.9,3.5,7.9,7.9
	S23,25.5,18.6,25.5z"/>
</svg>
