<svg width="63" height="62" viewBox="0 0 63 62" fill="none" xmlns="http://www.w3.org/2000/svg">
<path d="M39.7641 25.6909C38.6437 24.6294 37.923 23.2145 37.7233 21.6841L36.6822 13.7197L29.6297 17.5586C28.2737 18.2974 26.7045 18.5465 25.1864 18.2638L17.2917 16.7913L18.7642 24.686C19.0469 26.2041 18.7979 27.7733 18.059 29.1293L14.2201 36.1818L22.1846 37.2229C23.714 37.4232 25.1279 38.1438 26.1887 39.2637L31.7119 45.0943L35.1632 37.8429C35.8257 36.4494 36.9477 35.3264 38.3407 34.6628L45.5947 31.2115L39.7641 25.6909ZM39.8287 40.062L34.1118 52.0745C34.0036 52.3016 33.8418 52.499 33.6403 52.6496C33.4388 52.8002 33.2037 52.8995 32.9552 52.9389C32.7068 52.9784 32.4524 52.9567 32.2142 52.8759C31.976 52.795 31.761 52.6574 31.5879 52.4749L22.4377 42.8158C22.1933 42.558 21.8677 42.392 21.5155 42.3456L8.32239 40.62C8.07313 40.5871 7.83559 40.4942 7.63028 40.349C7.42496 40.2039 7.25802 40.0111 7.14386 39.7871C7.0297 39.5631 6.97174 39.3147 6.97498 39.0633C6.97822 38.8119 7.04257 38.565 7.16247 38.3441L13.5226 26.6571C13.6917 26.3445 13.7483 25.9833 13.6828 25.6341L11.2467 12.5546C11.2005 12.3071 11.2152 12.052 11.2897 11.8114C11.3642 11.5708 11.4962 11.352 11.6743 11.1739C11.8524 10.9958 12.0712 10.8638 12.3118 10.7893C12.5524 10.7148 12.8075 10.7 13.0551 10.7463L26.1345 13.1824C26.4838 13.2478 26.8449 13.1913 27.1575 13.0222L38.8445 6.66206C39.0656 6.54212 39.3127 6.47783 39.5642 6.47473C39.8158 6.47163 40.0644 6.52981 40.2884 6.64425C40.5125 6.7587 40.7053 6.92596 40.8503 7.1316C40.9952 7.33724 41.0879 7.57507 41.1204 7.82456L42.8461 21.0151C42.8925 21.3673 43.0584 21.6929 43.3162 21.9373L52.9753 31.0875C53.1578 31.2606 53.2954 31.4756 53.3763 31.7138C53.4571 31.952 53.4788 32.2064 53.4394 32.4548C53.3999 32.7033 53.3006 32.9384 53.15 33.1399C52.9994 33.3414 52.802 33.5032 52.5749 33.6114L40.5624 39.3283C40.2408 39.4813 39.9817 39.7404 39.8287 40.062ZM41.8876 45.0401L45.5405 41.3872L56.5016 52.3457L52.8461 56.0011L41.8876 45.0401Z" fill="#0F3D5F"/>
</svg>
